<?xml version="1.0" standalone="no"?>
<!DOCTYPE svg PUBLIC "-//W3C//DTD SVG 20010904//EN"
 "http://www.w3.org/TR/2001/REC-SVG-20010904/DTD/svg10.dtd">
<svg version="1.0" xmlns="http://www.w3.org/2000/svg"
 width="512.000000pt" height="512.000000pt" viewBox="0 0 512.000000 512.000000"
 preserveAspectRatio="xMidYMid meet">
<metadata>
Created by potrace 1.11, written by Peter Selinger 2001-2013
</metadata>
<g transform="translate(0.000000,512.000000) scale(0.100000,-0.100000)"
fill="#000000" stroke="none">
<path d="M2617 4930 c-13 -18 -27 -21 -128 -25 -63 -3 -130 -7 -149 -10 -19
-3 -57 -7 -85 -11 -27 -3 -57 -7 -65 -9 -8 -2 -31 -7 -50 -10 -55 -9 -179 -42
-245 -65 -40 -14 -61 -17 -63 -10 -3 8 -10 6 -21 -3 -26 -22 -49 -27 -55 -11
-7 17 -20 18 -38 2 -7 -7 -22 -15 -33 -16 -61 -11 -292 -141 -433 -246 -75
-55 -83 -64 -78 -88 4 -21 -1 -31 -27 -51 -82 -63 -357 -370 -357 -398 0 -4
-19 -19 -42 -34 -35 -23 -39 -24 -24 -7 11 12 14 22 9 22 -6 0 -29 -30 -51
-67 -48 -79 -58 -103 -44 -103 27 0 18 -33 -19 -71 -30 -31 -37 -44 -29 -54
13 -16 -7 -69 -45 -119 -14 -19 -21 -36 -15 -38 7 -2 2 -29 -14 -73 -13 -39
-33 -106 -45 -150 -23 -94 -36 -165 -56 -308 -5 -36 -10 -47 -21 -43 -7 3 -18
-3 -23 -12 -10 -18 -7 -373 3 -422 2 -14 7 -47 11 -74 8 -63 31 -175 51 -248
12 -42 22 -58 38 -62 17 -4 31 -30 65 -118 24 -62 67 -159 96 -215 49 -97 51
-103 33 -115 -18 -12 -18 -15 8 -51 14 -21 28 -36 31 -34 5 5 31 -13 62 -44 9
-8 53 -62 97 -120 45 -57 129 -151 187 -208 77 -76 107 -113 111 -137 5 -24
21 -42 66 -75 33 -24 60 -46 60 -50 0 -3 18 -14 41 -24 22 -10 46 -26 52 -36
7 -9 17 -17 22 -18 6 0 10 -5 10 -10 0 -5 4 -13 9 -18 5 -5 6 -3 2 4 -8 15 3
17 22 4 7 -4 12 -14 10 -21 -2 -7 3 -14 10 -16 7 -1 8 0 2 3 -5 2 -7 9 -4 14
3 6 11 6 20 -2 7 -6 12 -15 9 -19 -3 -5 4 -6 15 -3 12 3 20 0 20 -8 0 -7 3
-10 6 -6 7 7 60 -18 85 -40 9 -7 20 -13 25 -12 13 4 84 -33 84 -43 0 -5 4 -7
10 -3 5 3 16 -7 25 -22 15 -27 16 -27 10 -3 -5 19 -4 22 4 10 6 -8 8 -24 4
-35 -5 -17 -4 -18 10 -6 9 7 15 17 12 21 -3 4 1 10 8 13 8 3 14 -1 14 -9 0 -8
-5 -14 -11 -14 -6 0 -4 -5 4 -10 11 -7 11 -10 2 -10 -7 0 -11 -4 -8 -8 3 -5
-1 -9 -9 -9 -8 0 -12 3 -10 7 2 4 -8 7 -23 6 -19 -1 -27 4 -26 15 1 10 -5 16
-15 14 -20 -3 -93 53 -85 66 3 5 0 9 -5 9 -10 0 -15 -14 -12 -34 1 -5 -5 -6
-14 -2 -9 3 -19 6 -23 6 -3 0 3 6 13 14 18 13 17 14 -12 29 -17 9 -33 13 -37
10 -3 -4 -6 -1 -6 6 0 8 8 10 23 5 25 -8 22 -2 -10 15 -19 10 -21 8 -18 -15 2
-19 -1 -24 -13 -19 -13 5 -13 3 -1 -12 19 -25 32 -33 41 -27 10 7 10 -7 -1
-24 -4 -8 -12 -12 -16 -10 -4 1 -14 -8 -22 -22 -14 -23 -14 -24 1 -6 9 11 16
16 16 12 0 -5 6 -4 13 2 6 5 27 9 45 8 24 -1 37 -9 51 -30 11 -16 17 -36 13
-44 -4 -10 -1 -13 7 -8 7 5 10 14 7 21 -2 7 1 21 9 31 12 17 13 16 11 -11 -1
-17 -5 -36 -9 -42 -5 -8 -4 -13 2 -13 6 0 11 6 11 13 0 6 9 -1 20 -18 11 -16
20 -25 20 -19 0 6 -3 14 -7 18 -4 4 -8 20 -9 36 -1 26 0 27 17 17 22 -14 24
-24 7 -30 -7 -2 -9 -8 -5 -13 4 -5 12 -2 17 6 9 14 15 6 10 -15 -1 -5 8 -1 19
9 22 20 30 9 9 -12 -9 -9 -9 -15 -1 -23 8 -8 13 -7 18 2 6 8 4 10 -5 4 -8 -5
-11 -3 -8 6 5 16 26 19 51 7 9 -5 17 -5 16 -1 -1 4 0 10 1 13 7 19 7 40 -1 40
-5 0 -9 -4 -9 -9 0 -14 -25 -20 -41 -10 -12 8 -12 11 1 22 8 6 15 19 15 27 0
8 10 15 22 16 19 1 21 -2 12 -17 -12 -24 -1 -25 17 -2 13 17 14 17 8 0 -6 -15
-3 -16 20 -7 16 6 25 6 21 1 -3 -5 -1 -12 5 -16 6 -4 7 -11 4 -17 -5 -7 -2 -9
8 -6 8 4 15 0 15 -8 0 -7 -4 -11 -9 -8 -29 18 -78 8 -78 -17 0 -17 41 -31 56
-18 16 13 19 -1 4 -19 -5 -7 -2 -6 7 2 13 12 14 18 3 30 -8 10 -8 16 -2 16 16
0 27 -22 24 -50 -1 -23 3 -18 14 18 3 9 12 7 34 -10 24 -17 33 -19 43 -9 10
10 8 11 -6 5 -12 -4 -16 -2 -12 7 3 8 17 15 31 16 19 1 23 -2 15 -10 -15 -15
-14 -24 5 -31 8 -3 13 -2 10 2 -3 5 11 16 30 26 24 11 34 21 30 31 -3 8 -1 15
4 15 6 0 10 -7 10 -15 0 -8 5 -15 11 -15 5 0 8 4 4 9 -6 10 27 7 44 -3 5 -4
12 0 14 6 4 10 6 10 6 1 1 -7 6 -13 12 -13 5 0 7 5 3 12 -4 7 -3 8 4 4 18 -11
3 -35 -19 -31 -12 3 -17 0 -13 -7 4 -7 2 -8 -5 -4 -6 4 -9 12 -6 17 4 5 2 9
-4 9 -5 0 -12 -4 -16 -10 -3 -5 -12 -7 -19 -4 -8 3 -17 0 -22 -7 -4 -7 -2 -15
4 -17 7 -2 9 -8 6 -14 -4 -6 3 -5 15 2 12 6 19 15 16 21 -4 5 -2 9 4 9 25 0
19 -22 -11 -40 -18 -11 -28 -20 -22 -20 6 0 23 9 37 20 31 25 44 26 26 2 -13
-15 -12 -16 3 -4 9 8 15 19 12 26 -3 7 2 13 11 13 9 0 14 -6 11 -14 -3 -8 -1
-11 4 -8 6 3 10 1 10 -5 0 -6 5 -8 10 -5 9 6 14 -8 11 -28 -1 -5 3 -6 9 -2 6
4 7 12 1 23 -6 11 -6 24 0 34 6 11 4 18 -6 22 -8 3 -17 1 -20 -4 -3 -4 1 -10
7 -13 7 -2 9 -8 5 -13 -4 -5 -12 -2 -17 6 -11 18 6 41 26 33 13 -5 19 8 15 30
-1 5 3 6 9 2 7 -4 7 -13 -1 -27 -9 -18 -8 -19 10 -13 12 4 21 2 21 -4 0 -6 5
-11 11 -11 5 0 8 4 4 9 -3 5 -2 12 3 15 4 2 8 -6 8 -19 0 -19 -3 -22 -17 -15
-9 5 -20 6 -24 2 -5 -4 -5 -1 -1 5 5 9 2 11 -9 7 -14 -6 -14 -8 1 -19 11 -7
14 -17 9 -25 -5 -9 -4 -11 3 -6 7 4 12 2 12 -3 0 -6 5 -11 11 -11 8 0 7 5 -1
15 -7 9 -10 18 -6 22 3 4 13 -2 21 -13 15 -19 15 -19 9 1 -4 15 1 13 21 -10
19 -21 24 -24 16 -8 -7 13 -7 24 -2 28 5 3 12 -4 16 -15 3 -11 11 -20 18 -20
8 0 8 3 -1 12 -21 21 -13 32 9 12 11 -10 20 -14 19 -9 -5 21 1 29 9 16 8 -12
12 -13 25 -1 14 11 19 10 34 -2 9 -9 23 -13 30 -11 6 3 10 -1 9 -9 -2 -7 -2
-10 0 -5 3 4 10 4 16 0 8 -5 8 -2 0 9 -7 8 -10 18 -6 21 3 4 12 -1 20 -11 12
-16 13 -15 6 3 -6 18 -5 18 10 6 9 -7 14 -18 10 -24 -3 -6 -1 -7 6 -3 6 4 9
12 6 17 -9 14 8 11 35 -8 14 -9 19 -10 13 -3 -17 19 -17 35 0 21 10 -8 17 -7
27 2 10 10 12 8 6 -7 -5 -16 -4 -17 8 -7 12 10 13 16 3 26 -7 8 -14 9 -18 3
-4 -7 -9 -6 -13 1 -4 6 -1 11 6 11 9 0 10 3 2 8 -7 4 -8 15 -3 30 11 29 15 28
14 -5 0 -21 5 -28 20 -28 13 0 20 -6 19 -17 -2 -16 8 -22 29 -19 4 0 7 -6 7
-14 0 -8 5 -15 11 -15 5 0 7 4 4 10 -3 5 -8 18 -10 29 -3 15 2 19 28 17 18 0
37 -8 44 -17 18 -24 67 -18 90 10 17 20 23 22 41 12 19 -10 21 -9 15 6 -5 14
-4 16 8 7 18 -13 59 -16 59 -3 0 5 -3 8 -7 7 -5 -1 -19 4 -32 11 -13 7 -21 8
-17 3 4 -7 -1 -9 -14 -7 -13 2 -18 0 -14 -7 4 -7 0 -7 -13 1 -11 6 -23 7 -27
4 -3 -3 -6 -1 -6 5 0 7 -5 12 -11 12 -8 0 -8 -4 1 -15 10 -12 8 -14 -9 -10
-12 2 -21 0 -21 -6 0 -5 -5 -9 -11 -9 -5 0 -7 4 -4 10 3 6 -1 7 -9 4 -9 -3
-16 -1 -16 6 0 6 5 8 10 5 6 -3 10 -1 10 4 0 6 -4 11 -10 11 -5 0 -10 5 -10
11 0 8 4 8 15 -1 12 -10 14 -7 10 19 -2 17 0 29 4 26 5 -2 7 -21 5 -41 -2 -33
-1 -34 14 -21 9 8 32 14 50 12 22 -1 31 2 28 10 -2 6 0 18 5 26 8 12 10 12 8
-1 -3 -28 1 -41 11 -35 5 3 8 11 6 18 -1 7 -1 9 1 5 3 -5 9 -8 14 -8 6 0 7 5
3 12 -5 7 -3 8 6 3 10 -6 9 -11 -5 -22 -17 -12 -17 -13 -2 -14 34 -3 38 -4 46
-18 5 -8 8 -19 7 -25 -2 -6 -1 -8 1 -3 3 4 10 4 15 1 6 -4 8 -2 5 4 -10 15 1
39 18 39 18 0 20 -14 3 -20 -7 -2 -10 -8 -5 -12 10 -12 19 0 22 29 3 24 -8 28
-34 12 -9 -6 -12 -5 -8 1 3 5 0 10 -8 10 -8 0 -15 -5 -15 -11 0 -6 -5 -3 -11
7 -9 15 -7 21 8 32 15 12 19 11 28 -3 11 -19 35 -27 35 -13 0 5 -7 11 -15 15
-8 3 -15 13 -14 23 0 16 1 15 9 -2 7 -18 8 -19 15 -2 4 9 12 17 17 17 6 0 6
-6 -1 -14 -13 -16 -4 -43 28 -80 15 -18 15 -19 -2 -13 -11 4 -16 3 -12 -3 3
-6 1 -10 -6 -10 -7 0 -10 -3 -7 -6 4 -3 16 0 28 6 18 10 19 14 8 28 -11 14
-11 15 5 9 10 -4 16 -3 13 2 -3 5 1 12 10 15 11 4 15 2 11 -7 -4 -10 2 -13 19
-9 13 2 24 8 24 13 0 5 -8 5 -17 2 -16 -6 -16 -5 -4 11 14 17 16 17 27 1 7 -9
10 -24 7 -33 -4 -10 -2 -13 6 -8 7 5 9 16 5 29 -6 21 -6 21 20 4 14 -10 26
-14 26 -10 0 5 5 1 11 -7 9 -13 10 -13 6 0 -2 8 -9 16 -15 16 -7 1 -15 2 -18
3 -4 0 5 10 20 22 25 20 28 20 45 5 15 -14 20 -14 37 -1 10 8 14 15 8 15 -5 0
-15 -5 -22 -12 -8 -8 -12 -8 -12 -1 0 6 7 16 15 23 12 10 18 10 31 -1 13 -10
17 -10 24 1 5 8 7 17 4 19 -3 3 -8 0 -12 -6 -5 -8 -11 -8 -24 1 -11 8 -14 17
-7 27 6 10 9 10 9 2 0 -7 4 -13 10 -13 5 0 9 5 7 11 -1 6 4 14 11 16 8 3 10
-1 6 -11 -3 -9 -1 -16 6 -16 6 0 8 5 5 10 -3 6 1 10 10 10 9 0 14 -4 10 -9 -3
-6 4 -15 15 -21 13 -7 20 -7 20 0 0 5 -7 10 -16 10 -8 0 -12 5 -9 10 3 6 -2
14 -12 18 -10 4 -19 18 -21 31 -2 20 0 22 13 11 8 -7 13 -16 10 -20 -6 -10 24
-22 36 -14 5 3 19 7 30 9 12 3 24 7 28 11 3 4 -1 5 -9 2 -20 -7 -75 46 -64 63
4 8 3 10 -5 5 -6 -4 -10 -15 -9 -23 2 -9 -3 -18 -11 -21 -10 -3 -11 0 -5 9 7
12 5 12 -9 0 -9 -7 -17 -10 -17 -5 0 11 20 42 20 31 0 -4 10 1 22 13 21 19 23
19 42 2 18 -15 19 -15 8 0 -11 14 -10 18 10 29 13 8 27 13 31 14 4 0 12 7 17
15 5 8 10 11 10 5 0 -5 5 -2 11 9 9 15 13 16 20 5 7 -12 9 -11 9 1 0 8 24 31
53 50 62 42 76 58 77 87 0 13 16 34 43 54 23 19 49 40 57 49 91 91 160 149
173 144 20 -7 108 93 128 148 9 24 49 93 88 153 134 203 243 455 296 680 44
187 59 320 58 523 0 128 3 138 31 133 16 -3 -3 162 -39 329 -81 385 -291 769
-581 1064 -36 37 -183 169 -207 185 -12 8 -28 21 -35 28 -7 7 -58 43 -113 79
-124 81 -301 172 -439 223 -92 35 -105 37 -115 24 -9 -13 -16 -13 -33 -4 -12
6 -22 18 -22 26 0 20 -29 19 -36 0 -8 -19 -40 -20 -47 0 -8 20 -75 51 -127 58
-25 4 -54 8 -65 11 -20 4 -93 12 -197 21 -49 5 -58 3 -71 -15z m893 -4172 c0
21 16 13 29 -15 11 -23 10 -28 -6 -37 -10 -6 -22 -11 -26 -11 -4 0 -12 -7 -17
-15 -5 -8 -12 -11 -17 -7 -4 5 -2 12 5 16 8 5 10 15 6 27 -7 18 -7 18 13 1 16
-14 20 -14 20 -2 0 8 -5 11 -10 8 -6 -3 -7 -1 -3 6 4 6 12 9 17 6 5 -4 9 -1 9
4 0 12 -27 10 -48 -3 -7 -4 -11 -13 -9 -20 3 -6 -1 -20 -9 -31 -8 -10 -14 -13
-14 -6 0 7 -5 9 -11 5 -8 -4 -7 -9 2 -15 12 -7 11 -9 -1 -9 -11 -1 -11 -3 3
-11 10 -6 21 -8 24 -5 4 3 1 6 -6 6 -7 0 -10 4 -6 10 3 5 12 7 21 3 11 -4 12
-8 3 -20 -7 -7 -19 -11 -27 -8 -8 3 -23 -2 -33 -11 -21 -19 -66 -27 -75 -13
-3 6 -12 5 -21 -3 -14 -12 -33 -18 -60 -20 -7 -1 -13 -6 -13 -11 0 -18 -11 0
-15 24 -2 13 0 31 5 39 8 13 11 13 22 1 11 -11 11 -13 -1 -6 -9 5 -12 3 -10
-4 3 -7 7 -11 9 -10 3 1 15 -3 28 -10 14 -7 22 -8 22 -1 0 5 -4 10 -10 10 -12
0 -41 55 -33 64 14 14 24 5 17 -16 -6 -22 -6 -22 13 -5 11 9 23 14 28 10 4 -5
6 -1 3 7 -3 8 -11 15 -18 15 -7 0 -15 7 -17 15 -4 13 -3 13 6 0 6 -8 11 -11
11 -7 0 5 6 5 13 0 38 -24 81 3 55 35 -10 12 -10 14 0 8 7 -4 12 -2 12 5 0 7
7 4 16 -7 14 -18 15 -18 9 6 -5 19 -4 22 4 10 10 -13 15 -8 12 13 0 4 5 7 13
7 10 0 13 -8 11 -22 -4 -22 -4 -22 10 -4 8 10 12 24 9 30 -3 6 4 0 15 -14 11
-14 21 -19 21 -12z m108 -40 c-19 -11 -25 -10 -32 8 -10 26 4 37 25 18 15 -13
17 -19 7 -26z m-2012 5 c-9 -9 -46 -11 -51 -2 -12 18 5 28 30 17 14 -6 23 -13
21 -15z m1762 -4 c3 -11 1 -11 -7 1 -7 10 -11 11 -11 3 0 -7 -4 -13 -8 -13 -5
0 -9 6 -9 14 0 18 30 14 35 -5z m-1680 -76 c-14 -17 -29 -7 -21 14 4 10 2 14
-5 9 -6 -3 -13 -2 -17 4 -4 6 -12 7 -18 3 -8 -5 -8 -2 0 9 7 8 9 19 5 23 -4 5
10 -5 30 -20 28 -22 34 -32 26 -42z m1581 64 c-2 -1 -13 -9 -24 -17 -19 -14
-19 -14 -6 3 7 9 18 17 24 17 6 0 8 -1 6 -3z m-1659 -21 c0 -11 -19 -15 -25
-6 -3 5 1 10 9 10 9 0 16 -2 16 -4z m1595 -6 c-3 -5 -1 -10 6 -10 7 0 10 -3 6
-6 -9 -9 -28 6 -22 17 4 5 8 9 11 9 3 0 2 -4 -1 -10z m-41 -19 c3 -5 0 -14 -8
-20 -10 -9 -15 -8 -19 3 -4 11 -1 13 10 9 11 -4 14 -2 9 5 -4 7 -5 12 -2 12 3
0 7 -4 10 -9z m-1437 -42 c0 -21 -3 -26 -9 -16 -4 9 -5 22 -2 31 9 23 11 20
11 -15z m1402 8 c0 -9 -2 -8 -6 1 -2 6 -10 9 -15 6 -7 -4 -8 -2 -4 5 9 13 26
5 25 -12z m-79 -7 c0 -5 -2 -10 -4 -10 -3 0 -8 5 -11 10 -3 6 -1 10 4 10 6 0
11 -4 11 -10z m-1247 -13 c4 3 7 1 7 -5 0 -22 -19 -22 -31 0 -11 20 -10 21 3
11 8 -7 18 -10 21 -6z m207 3 c0 -5 -4 -10 -10 -10 -5 0 -10 5 -10 10 0 6 5
10 10 10 6 0 10 -4 10 -10z m25 -9 c-3 -5 -1 -12 4 -15 5 -4 12 2 14 11 3 10
4 1 2 -20 -3 -49 -10 -55 -36 -31 -12 10 -23 18 -25 17 -6 -4 -6 5 -1 20 3 9
8 8 22 -3 17 -14 18 -13 13 2 -4 9 -4 19 -1 22 10 9 15 7 8 -3z m835 -1 c0 -5
-5 -10 -11 -10 -5 0 -7 5 -4 10 3 6 8 10 11 10 2 0 4 -4 4 -10z m40 -2 c0 -4
-4 -8 -9 -8 -6 0 -12 4 -15 8 -3 5 1 9 9 9 8 0 15 -4 15 -9z m120 1 c0 -3 -11
-6 -25 -6 -14 0 -25 3 -25 6 0 4 11 7 25 7 14 0 25 -3 25 -7z m-894 -19 c6 6
14 2 22 -10 12 -20 6 -25 -20 -21 -5 0 -8 -3 -8 -8 0 -5 -7 -12 -16 -15 -13
-5 -14 -4 -6 7 7 8 8 17 4 21 -4 4 -8 12 -8 17 -3 22 -5 23 -14 9 -5 -8 -12
-11 -17 -7 -15 16 21 26 37 12 11 -10 20 -11 26 -5z m668 8 c-5 -8 -2 -9 9 -5
25 9 21 2 -9 -18 -17 -11 -23 -12 -18 -4 5 8 9 17 10 22 3 15 4 17 10 17 3 0
2 -5 -2 -12z m-929 -8 c-3 -5 -12 -10 -18 -10 -7 0 -6 4 3 10 19 12 23 12 15
0z m539 -5 c-10 -8 -23 -15 -28 -15 -6 0 -1 7 10 15 10 8 23 15 28 15 6 0 1
-7 -10 -15z m93 9 c-8 -8 -48 -13 -43 -6 2 4 14 8 26 9 12 1 20 0 17 -3z m143
2 c0 -2 -7 -7 -16 -10 -8 -3 -12 -2 -9 4 6 10 25 14 25 6z m60 0 c0 -3 -4 -8
-10 -11 -5 -3 -10 -1 -10 4 0 6 5 11 10 11 6 0 10 -2 10 -4z m-763 -23 c0 -6
-6 -14 -12 -17 -17 -6 -39 10 -31 22 9 15 43 11 43 -5z m690 -13 c6 0 13 5 15
12 2 6 10 8 17 4 7 -5 10 -14 7 -21 -2 -7 1 -16 9 -19 9 -3 12 0 9 8 -7 18 24
42 37 29 6 -6 11 -17 12 -24 2 -8 6 -21 11 -29 7 -12 6 -13 -4 -3 -10 9 -17
10 -27 2 -10 -9 -13 -8 -13 1 0 10 -3 10 -14 1 -12 -10 -17 -9 -24 6 -5 10 -7
25 -4 33 4 13 3 13 -11 1 -10 -8 -24 -10 -34 -6 -10 5 -21 8 -24 7 -3 0 -6 6
-6 14 0 12 3 12 17 -1 9 -8 21 -15 27 -15z m217 8 c-1 -13 -3 -24 -4 -25 -2
-2 -3 -7 -4 -12 -3 -22 -13 -18 -23 9 -9 24 -8 28 5 23 9 -4 13 -2 9 4 -4 6
-1 14 5 16 7 3 13 6 14 6 0 1 0 -9 -2 -21z m39 11 c-6 -6 -9 -18 -6 -25 3 -8
1 -14 -4 -14 -13 0 -12 33 1 42 17 11 21 9 9 -3z m23 -4 c-9 -23 37 -49 63
-35 12 6 21 8 21 4 0 -3 8 0 17 7 13 11 13 9 -2 -12 -23 -30 -71 -34 -86 -6
-6 10 -14 15 -19 12 -4 -3 -7 3 -5 12 2 10 4 21 4 26 1 4 4 7 7 7 3 0 4 -7 0
-15z m-469 -10 c0 -8 -4 -15 -9 -15 -4 0 -8 7 -8 15 0 8 4 15 8 15 5 0 9 -7 9
-15z m58 6 c-3 -5 -1 -12 5 -16 5 -3 10 0 10 7 0 7 7 2 16 -10 15 -21 34 -22
34 -1 0 6 -4 7 -10 4 -5 -3 -10 -1 -10 4 0 14 13 14 28 -1 6 -6 19 -13 27 -15
8 -2 22 -4 30 -6 8 -2 18 -7 22 -11 4 -4 3 -6 -2 -5 -5 2 -20 -2 -31 -9 -17
-9 -24 -9 -33 2 -6 7 -8 16 -4 19 3 4 2 7 -4 7 -6 0 -16 -7 -23 -15 -9 -11
-16 -12 -25 -5 -9 8 -15 8 -20 0 -4 -7 -11 -8 -18 -1 -7 5 -16 9 -22 9 -5 0
-15 -4 -22 -9 -20 -17 -25 9 -5 29 19 19 19 19 31 0 6 -10 16 -16 22 -12 8 4
7 9 -1 14 -11 7 -6 30 6 30 3 0 3 -4 -1 -9z m665 -1 c0 -5 -2 -10 -4 -10 -3 0
-8 5 -11 10 -3 6 -1 10 4 10 6 0 11 -4 11 -10z m-955 -40 c3 -5 2 -10 -4 -10
-5 0 -13 5 -16 10 -3 6 -2 10 4 10 5 0 13 -4 16 -10z"/>
<path d="M3439 753 c-1 -5 -1 -11 0 -15 0 -5 -3 -8 -9 -8 -5 0 -10 -5 -10 -11
0 -8 6 -7 18 2 16 13 16 12 3 -4 -14 -18 -16 -18 -34 5 -10 13 -16 18 -12 11
3 -7 -1 -27 -10 -44 -9 -17 -13 -29 -8 -26 5 3 15 2 22 -2 10 -6 9 -10 -3 -14
-8 -3 -18 -2 -21 3 -4 6 -11 10 -17 10 -7 0 -7 -5 1 -14 9 -11 6 -13 -19 -11
-16 1 -30 -2 -30 -7 0 -6 6 -8 14 -5 7 3 18 1 24 -5 6 -6 12 -6 16 1 4 6 12
11 17 11 6 0 7 -6 3 -12 -5 -8 2 -6 16 3 14 9 26 26 26 38 3 39 4 42 22 39 10
-2 16 2 14 11 -2 7 5 23 15 35 l18 21 -22 -19 c-21 -17 -28 -15 -24 7 0 4 -1
7 -4 7 -3 0 -6 -3 -6 -7z m-23 -78 c1 -8 -4 -11 -12 -8 -15 6 -18 16 -7 26 8
9 16 1 19 -18z m-1 -35 c-3 -5 -12 -10 -18 -10 -7 0 -6 4 3 10 19 12 23 12 15
0z"/>
<path d="M3348 681 c-1 -5 -10 -11 -18 -13 -17 -3 -40 -23 -40 -34 0 -3 6 -2
13 3 6 6 20 9 30 8 9 -2 15 1 11 6 -3 5 2 12 10 15 9 3 16 10 16 15 0 12 -17
12 -22 0z"/>
<path d="M3243 606 c0 -15 22 -15 34 0 4 5 4 6 -1 2 -5 -4 -14 -3 -21 2 -8 7
-12 5 -12 -4z"/>
<path d="M1995 569 c-5 -7 -4 -10 2 -6 6 4 16 0 23 -8 13 -15 30 -12 30 7 0 5
-6 8 -14 5 -7 -3 -18 -1 -24 5 -6 6 -12 6 -17 -3z"/>
<path d="M2116 561 c9 -9 34 -9 34 -1 0 5 -9 8 -20 7 -10 -1 -17 -3 -14 -6z"/>
<path d="M2707 545 c-7 -16 8 -29 23 -20 10 6 2 35 -10 35 -4 0 -10 -7 -13
-15z"/>
<path d="M2449 523 c-12 -16 -12 -17 2 -6 9 7 20 9 24 5 5 -4 5 -1 1 6 -9 16
-11 15 -27 -5z"/>
<path d="M2509 523 c-12 -16 -12 -17 2 -6 12 10 18 10 29 0 12 -10 12 -9 1 6
-7 9 -15 17 -16 17 -1 0 -9 -8 -16 -17z"/>
<path d="M2595 520 c-3 -5 -1 -10 4 -10 6 0 11 5 11 10 0 6 -2 10 -4 10 -3 0
-8 -4 -11 -10z"/>
<path d="M625 3760 c-3 -6 1 -7 9 -4 18 7 21 14 7 14 -6 0 -13 -4 -16 -10z"/>
<path d="M3775 900 c-3 -5 -1 -10 4 -10 6 0 11 5 11 10 0 6 -2 10 -4 10 -3 0
-8 -4 -11 -10z"/>
<path d="M1220 880 c-9 -6 -10 -10 -3 -10 6 0 15 5 18 10 8 12 4 12 -15 0z"/>
<path d="M3866 882 c-3 -5 1 -9 9 -9 8 0 12 4 9 9 -3 4 -7 8 -9 8 -2 0 -6 -4
-9 -8z"/>
<path d="M3730 856 c0 -2 8 -10 18 -17 15 -13 16 -12 3 4 -13 16 -21 21 -21
13z"/>
<path d="M1270 838 c0 -4 4 -8 9 -8 6 0 12 4 15 8 3 5 -1 9 -9 9 -8 0 -15 -4
-15 -9z"/>
<path d="M1380 840 c8 -5 20 -10 25 -10 6 0 3 5 -5 10 -8 5 -19 10 -25 10 -5
0 -3 -5 5 -10z"/>
<path d="M3715 830 c-4 -6 -12 -7 -18 -4 -7 4 -9 3 -4 -1 13 -15 46 -13 40 2
-6 16 -10 16 -18 3z"/>
<path d="M3654 817 c-3 -9 -3 -25 0 -34 6 -15 8 -15 24 0 15 16 15 18 0 34
-16 15 -18 15 -24 0z m18 -29 c-9 -9 -12 -7 -12 12 0 19 3 21 12 12 9 -9 9
-15 0 -24z"/>
<path d="M1330 816 c0 -2 8 -10 18 -17 15 -13 16 -12 3 4 -13 16 -21 21 -21
13z"/>
<path d="M3750 816 c0 -2 8 -10 18 -17 15 -13 16 -12 3 4 -13 16 -21 21 -21
13z"/>
<path d="M1420 802 c0 -5 7 -9 15 -9 8 0 15 4 15 9 0 4 -7 8 -15 8 -8 0 -15
-4 -15 -8z"/>
<path d="M1468 788 c5 -5 16 -8 23 -6 8 3 3 7 -10 11 -17 4 -21 3 -13 -5z"/>
<path d="M1393 784 c3 -3 1 -18 -4 -33 -6 -15 -6 -22 -1 -16 17 18 24 55 11
55 -7 0 -10 -3 -6 -6z"/>
<path d="M3610 785 c0 -3 9 -14 20 -25 12 -12 20 -15 20 -7 0 7 -9 18 -20 25
-11 7 -20 10 -20 7z"/>
<path d="M3694 779 c-4 -7 -3 -9 4 -5 5 3 13 0 15 -6 4 -9 6 -10 6 -1 1 17
-16 25 -25 12z"/>
<path d="M1293 767 c0 -7 9 -14 20 -14 11 -1 18 -1 16 0 -2 2 -11 8 -20 15
-12 9 -16 9 -16 -1z"/>
<path d="M1455 770 c3 -5 -1 -10 -9 -10 -19 0 -21 -16 -4 -26 7 -4 8 -3 4 4
-7 11 6 17 28 13 5 -1 4 5 -4 13 -14 18 -25 22 -15 6z"/>
<path d="M1510 770 c0 -5 5 -10 10 -10 6 0 10 5 10 10 0 6 -4 10 -10 10 -5 0
-10 -4 -10 -10z"/>
<path d="M3770 776 c0 -2 8 -10 18 -17 15 -13 16 -12 3 4 -13 16 -21 21 -21
13z"/>
<path d="M3814 760 c0 -13 4 -16 10 -10 7 7 7 13 0 20 -6 6 -10 3 -10 -10z"/>
<path d="M1490 755 c0 -8 4 -15 10 -15 5 0 7 7 4 15 -4 8 -8 15 -10 15 -2 0
-4 -7 -4 -15z"/>
<path d="M1173 745 c0 -8 4 -12 9 -9 5 3 6 10 3 15 -9 13 -12 11 -12 -6z"/>
<path d="M1591 757 c2 -1 13 -9 24 -17 19 -14 19 -14 6 3 -7 9 -18 17 -24 17
-6 0 -8 -1 -6 -3z"/>
<path d="M3670 750 c0 -5 7 -6 17 -3 12 5 14 3 8 -7 -5 -9 -4 -11 4 -6 6 4 9
12 6 17 -8 12 -35 12 -35 -1z"/>
<path d="M3750 746 c0 -2 7 -7 16 -10 8 -3 12 -2 9 4 -6 10 -25 14 -25 6z"/>
<path d="M3934 742 c4 -3 14 -7 22 -8 9 -1 13 0 10 4 -4 3 -14 7 -22 8 -9 1
-13 0 -10 -4z"/>
<path d="M1339 738 c-5 -18 -6 -38 -1 -34 7 8 12 36 6 36 -2 0 -4 -1 -5 -2z"/>
<path d="M1456 725 c-3 -8 -1 -15 4 -15 6 0 10 7 10 15 0 8 -2 15 -4 15 -2 0
-6 -7 -10 -15z"/>
<path d="M1653 723 c0 -8 14 -24 31 -36 36 -25 77 -31 69 -10 -4 11 -8 11 -13
3 -5 -8 -9 -8 -13 3 -3 8 -21 23 -39 34 -27 16 -35 17 -35 6z m58 -39 c9 -11
2 -9 -18 6 -18 13 -33 25 -33 27 0 8 38 -17 51 -33z"/>
<path d="M1267 719 c7 -7 15 -10 18 -7 3 3 -2 9 -12 12 -14 6 -15 5 -6 -5z"/>
<path d="M1410 726 c0 -2 7 -7 16 -10 8 -3 12 -2 9 4 -6 10 -25 14 -25 6z"/>
<path d="M1486 719 c2 -4 -4 -12 -13 -18 -11 -6 -13 -11 -5 -11 7 0 10 -4 7
-10 -4 -6 1 -7 11 -3 12 4 14 8 6 11 -10 3 -10 7 -1 18 16 20 29 17 23 -3 -5
-15 -4 -15 4 -3 14 18 7 29 -18 27 -10 -1 -17 -4 -14 -8z"/>
<path d="M3700 720 c-9 -6 -10 -10 -3 -10 6 0 15 5 18 10 8 12 4 12 -15 0z"/>
<path d="M3750 720 c0 -5 5 -10 11 -10 5 0 7 5 4 10 -3 6 -8 10 -11 10 -2 0
-4 -4 -4 -10z"/>
<path d="M3833 705 c0 -8 4 -12 9 -9 5 3 6 10 3 15 -9 13 -12 11 -12 -6z"/>
<path d="M1397 688 c20 -22 24 -23 16 -1 -5 12 -3 14 8 8 8 -4 11 -4 6 0 -4 5
-16 9 -27 10 -19 2 -19 1 -3 -17z"/>
<path d="M3655 701 c-3 -5 0 -13 6 -17 8 -5 9 -3 4 6 -6 9 -1 10 16 5 19 -5
21 -4 9 4 -19 13 -27 14 -35 2z"/>
<path d="M1522 685 c-7 -8 -9 -15 -4 -15 5 0 15 7 22 15 16 19 -1 19 -18 0z"/>
<path d="M3630 689 c0 -5 -4 -7 -10 -4 -6 4 -7 -1 -3 -11 4 -11 8 -13 11 -6 2
7 8 10 13 7 5 -4 6 1 3 9 -7 18 -14 21 -14 5z"/>
<path d="M1270 679 c0 -5 5 -7 10 -4 6 3 10 8 10 11 0 2 -4 4 -10 4 -5 0 -10
-5 -10 -11z"/>
<path d="M3806 682 c-3 -5 1 -9 9 -9 8 0 12 4 9 9 -3 4 -7 8 -9 8 -2 0 -6 -4
-9 -8z"/>
<path d="M3710 676 c0 -2 8 -10 18 -17 15 -13 16 -12 3 4 -13 16 -21 21 -21
13z"/>
<path d="M3753 665 c0 -8 4 -12 9 -9 5 3 6 10 3 15 -9 13 -12 11 -12 -6z"/>
<path d="M1320 660 c-9 -6 -10 -10 -3 -10 6 0 15 5 18 10 8 12 4 12 -15 0z"/>
<path d="M1437 657 c4 -6 0 -8 -10 -4 -24 9 -21 0 3 -13 16 -8 20 -8 18 2 -2
7 4 12 12 10 8 -2 11 0 7 4 -12 12 -38 14 -30 1z"/>
<path d="M1485 659 c-5 -8 -4 -10 3 -5 8 5 12 -1 13 -16 1 -18 2 -19 6 -4 6
23 -12 43 -22 25z"/>
<path d="M3673 655 c0 -8 4 -12 9 -9 5 3 6 10 3 15 -9 13 -12 11 -12 -6z"/>
<path d="M3560 651 c0 -5 -3 -16 -6 -25 -3 -9 -2 -16 3 -16 5 0 10 11 11 25 1
14 0 25 -3 25 -3 0 -5 -4 -5 -9z"/>
<path d="M3651 644 c0 -11 3 -14 6 -6 3 7 2 16 -1 19 -3 4 -6 -2 -5 -13z"/>
<path d="M1205 640 c-3 -6 1 -7 9 -4 18 7 21 14 7 14 -6 0 -13 -4 -16 -10z"/>
<path d="M1564 639 c-3 -6 -2 -15 4 -21 6 -6 12 -6 17 3 5 8 4 10 -3 5 -7 -4
-12 -3 -12 3 0 5 6 12 13 14 9 4 9 6 0 6 -6 1 -15 -4 -19 -10z"/>
<path d="M1600 641 c0 -5 7 -17 16 -26 9 -8 13 -22 10 -31 -3 -8 -2 -12 4 -9
15 9 12 31 -5 45 -8 7 -12 16 -9 21 3 5 0 9 -5 9 -6 0 -11 -4 -11 -9z"/>
<path d="M1630 644 c0 -5 7 -18 15 -28 8 -11 15 -16 15 -10 0 5 -7 18 -15 28
-8 11 -15 16 -15 10z"/>
<path d="M1750 640 c0 -5 5 -10 10 -10 6 0 10 5 10 10 0 6 -4 10 -10 10 -5 0
-10 -4 -10 -10z"/>
<path d="M1850 640 c0 -5 5 -10 10 -10 6 0 10 5 10 10 0 6 -4 10 -10 10 -5 0
-10 -4 -10 -10z"/>
<path d="M3696 642 c-3 -5 1 -9 9 -9 8 0 12 4 9 9 -3 4 -7 8 -9 8 -2 0 -6 -4
-9 -8z"/>
<path d="M3600 631 c0 -6 4 -13 10 -16 6 -3 7 1 4 9 -7 18 -14 21 -14 7z"/>
<path d="M1330 619 c0 -5 5 -7 10 -4 6 3 10 8 10 11 0 2 -4 4 -10 4 -5 0 -10
-5 -10 -11z"/>
<path d="M1539 628 c0 -2 -2 -13 -3 -25 -2 -19 0 -21 12 -11 9 8 10 14 3 16
-6 2 -9 8 -5 13 3 5 3 9 0 9 -3 0 -6 -1 -7 -2z"/>
<path d="M1840 610 c-13 -8 -13 -10 2 -10 9 0 20 5 23 10 8 13 -5 13 -25 0z"/>
<path d="M1893 604 c0 -7 10 -11 24 -10 32 4 34 21 2 22 -14 1 -26 -4 -26 -12z"/>
<path d="M3630 617 c0 -2 6 -10 14 -16 11 -9 16 -9 22 1 4 7 4 10 -1 6 -4 -4
-14 -3 -22 3 -7 6 -13 9 -13 6z"/>
<path d="M1375 600 c-3 -5 -1 -10 4 -10 6 0 11 5 11 10 0 6 -2 10 -4 10 -3 0
-8 -4 -11 -10z"/>
<path d="M1486 598 c3 -5 10 -6 15 -3 13 9 11 12 -6 12 -8 0 -12 -4 -9 -9z"/>
<path d="M3146 602 c-3 -5 1 -9 9 -9 8 0 15 4 15 9 0 4 -4 8 -9 8 -6 0 -12 -4
-15 -8z"/>
<path d="M3430 600 c0 -5 5 -10 10 -10 6 0 10 5 10 10 0 6 -4 10 -10 10 -5 0
-10 -4 -10 -10z"/>
<path d="M3500 600 c-18 -12 -2 -12 25 0 13 6 15 9 5 9 -8 0 -22 -4 -30 -9z"/>
<path d="M3590 592 c9 -19 30 -23 30 -5 0 4 -3 3 -7 0 -3 -4 -12 1 -20 11 -13
15 -13 15 -3 -6z"/>
<path d="M3553 587 c0 -8 6 -14 14 -14 9 0 10 4 2 14 -6 7 -12 13 -14 13 -1 0
-2 -6 -2 -13z"/>
<path d="M1593 583 c4 -3 1 -13 -6 -22 -11 -14 -10 -14 5 -2 16 12 16 31 1 31
-4 0 -3 -3 0 -7z"/>
<path d="M3455 579 c-4 -6 -5 -12 -2 -15 2 -3 7 2 10 11 7 17 1 20 -8 4z"/>
<path d="M3695 580 c3 -5 8 -10 11 -10 2 0 4 5 4 10 0 6 -5 10 -11 10 -5 0 -7
-4 -4 -10z"/>
<path d="M3479 578 c-4 -12 -5 -57 0 -53 6 6 10 55 4 55 -1 0 -3 -1 -4 -2z"/>
<path d="M3387 559 c7 -7 15 -10 18 -7 3 3 -2 9 -12 12 -14 6 -15 5 -6 -5z"/>
<path d="M3317 549 c7 -7 15 -10 18 -7 3 3 -2 9 -12 12 -14 6 -15 5 -6 -5z"/>
<path d="M3513 545 c0 -8 4 -12 9 -9 5 3 6 10 3 15 -9 13 -12 11 -12 -6z"/>
<path d="M1660 546 c0 -2 8 -10 18 -17 15 -13 16 -12 3 4 -13 16 -21 21 -21
13z"/>
<path d="M1848 543 c6 -2 9 -10 6 -15 -4 -7 -2 -8 5 -4 13 9 5 26 -12 25 -9 0
-8 -2 1 -6z"/>
<path d="M2158 529 c-16 -11 -28 -26 -28 -32 0 -7 7 -4 14 5 7 10 15 16 17 13
3 -2 10 5 17 15 15 25 14 24 -20 -1z"/>
<path d="M3289 544 c6 -3 8 -11 5 -19 -3 -7 -1 -15 4 -19 5 -3 8 5 7 16 -1 12
-7 23 -14 24 -6 1 -7 0 -2 -2z"/>
<path d="M3420 540 c-9 -6 -10 -10 -3 -10 6 0 15 5 18 10 8 12 4 12 -15 0z"/>
<path d="M1878 528 c-7 -17 15 -19 29 -3 4 4 3 5 -4 2 -6 -4 -13 -2 -15 5 -3
8 -6 6 -10 -4z"/>
<path d="M1616 518 c3 -5 10 -6 15 -3 13 9 11 12 -6 12 -8 0 -12 -4 -9 -9z"/>
<path d="M1706 518 c3 -5 10 -6 15 -3 13 9 11 12 -6 12 -8 0 -12 -4 -9 -9z"/>
<path d="M1775 520 c-4 -6 -1 -9 7 -8 7 2 12 -3 10 -10 -1 -8 2 -11 8 -7 8 5
7 11 -1 21 -14 17 -16 17 -24 4z"/>
<path d="M3026 511 c-4 -5 3 -7 14 -4 23 6 26 13 6 13 -8 0 -17 -4 -20 -9z"/>
<path d="M3110 510 c8 -5 20 -10 25 -10 6 0 3 5 -5 10 -8 5 -19 10 -25 10 -5
0 -3 -5 5 -10z"/>
<path d="M3193 505 c0 -8 4 -15 9 -15 4 0 8 4 8 9 0 6 -4 12 -8 15 -5 3 -9 -1
-9 -9z"/>
<path d="M3373 505 c0 -8 4 -12 9 -9 5 3 6 10 3 15 -9 13 -12 11 -12 -6z"/>
<path d="M1665 500 c-3 -6 1 -7 9 -4 18 7 21 14 7 14 -6 0 -13 -4 -16 -10z"/>
<path d="M1830 496 c7 -7 13 -7 20 0 6 6 3 10 -10 10 -13 0 -16 -4 -10 -10z"/>
<path d="M1956 502 c-2 -4 -1 -14 4 -22 7 -11 9 -9 7 8 -1 24 -3 26 -11 14z"/>
<path d="M2016 501 c-3 -5 0 -14 8 -20 10 -9 15 -8 19 3 4 11 1 13 -10 9 -11
-4 -14 -2 -9 5 4 7 5 12 2 12 -3 0 -7 -4 -10 -9z"/>
<path d="M2350 499 c0 -5 5 -7 10 -4 6 3 10 8 10 11 0 2 -4 4 -10 4 -5 0 -10
-5 -10 -11z"/>
<path d="M2870 503 c0 -6 8 -17 18 -24 16 -13 16 -13 2 6 -8 11 -16 22 -17 24
-2 2 -3 0 -3 -6z"/>
<path d="M2902 496 c10 -7 14 -17 10 -21 -4 -5 -1 -5 6 -1 10 6 10 11 1 22 -6
8 -17 14 -23 14 -6 0 -3 -7 6 -14z"/>
<path d="M3070 500 c0 -5 5 -10 10 -10 6 0 10 5 10 10 0 6 -4 10 -10 10 -5 0
-10 -4 -10 -10z"/>
<path d="M1893 485 c0 -8 4 -15 9 -15 4 0 8 4 8 9 0 6 -4 12 -8 15 -5 3 -9 -1
-9 -9z"/>
<path d="M2070 489 c0 -5 5 -7 10 -4 6 3 10 8 10 11 0 2 -4 4 -10 4 -5 0 -10
-5 -10 -11z"/>
<path d="M3253 487 c0 -8 6 -14 14 -14 9 0 10 4 2 14 -6 7 -12 13 -14 13 -1 0
-2 -6 -2 -13z"/>
<path d="M2097 475 c-4 -8 -3 -16 1 -19 4 -3 9 4 9 15 2 23 -3 25 -10 4z"/>
<path d="M2274 478 c-4 -6 -3 -8 4 -4 5 3 13 0 15 -6 3 -8 6 -6 6 5 1 19 -14
23 -25 5z"/>
<path d="M2550 479 c-12 -8 -10 -9 9 -4 17 5 22 4 16 -5 -5 -9 -4 -11 4 -6 6
4 9 12 6 17 -8 12 -16 11 -35 -2z"/>
<path d="M2795 480 c-3 -5 -2 -10 4 -10 5 0 13 5 16 10 3 6 2 10 -4 10 -5 0
-13 -4 -16 -10z"/>
<path d="M2998 472 c-11 -15 -11 -15 2 -6 8 6 23 10 33 8 11 -1 16 0 13 4 -13
12 -36 10 -48 -6z"/>
<path d="M2053 465 c0 -8 4 -12 9 -9 5 3 6 10 3 15 -9 13 -12 11 -12 -6z"/>
<path d="M2707 467 c-3 -7 3 -13 14 -13 13 0 15 3 7 13 -6 7 -12 13 -13 13 -2
0 -5 -6 -8 -13z"/>
<path d="M2230 456 c7 -7 13 -7 20 0 6 6 3 10 -10 10 -13 0 -16 -4 -10 -10z"/>
<path d="M2356 462 c-3 -4 4 -9 15 -9 23 -2 25 3 4 10 -8 4 -16 3 -19 -1z"/>
<path d="M2655 460 c-3 -5 -1 -10 4 -10 6 0 11 5 11 10 0 6 -2 10 -4 10 -3 0
-8 -4 -11 -10z"/>
<path d="M2760 460 c-9 -6 -10 -10 -3 -10 6 0 15 5 18 10 8 12 4 12 -15 0z"/>
<path d="M2820 460 c-9 -6 -10 -10 -3 -10 6 0 15 5 18 10 8 12 4 12 -15 0z"/>
<path d="M2953 453 c0 -9 4 -10 14 -2 7 6 13 12 13 14 0 1 -6 2 -13 2 -8 0
-14 -6 -14 -14z"/>
<path d="M3150 466 c0 -2 7 -7 16 -10 8 -3 12 -2 9 4 -6 10 -25 14 -25 6z"/>
<path d="M2410 457 c0 -2 6 -10 14 -16 11 -9 16 -9 22 1 4 7 4 10 -1 6 -4 -4
-14 -3 -22 3 -7 6 -13 9 -13 6z"/>
<path d="M2320 440 c-9 -6 -10 -10 -3 -10 6 0 15 5 18 10 8 12 4 12 -15 0z"/>
<path d="M2515 440 c3 -5 8 -10 11 -10 2 0 4 5 4 10 0 6 -5 10 -11 10 -5 0 -7
-4 -4 -10z"/>
<path d="M2596 438 c3 -5 10 -6 15 -3 13 9 11 12 -6 12 -8 0 -12 -4 -9 -9z"/>
<path d="M2836 435 c-9 -26 -7 -32 5 -12 6 10 9 21 6 23 -2 3 -7 -2 -11 -11z"/>
<path d="M2365 420 c-3 -6 1 -7 9 -4 18 7 21 14 7 14 -6 0 -13 -4 -16 -10z"/>
<path d="M2747 399 c7 -7 15 -10 18 -7 3 3 -2 9 -12 12 -14 6 -15 5 -6 -5z"/>
</g>
</svg>
